# Blender v3.5.1 OBJ File: ''
# www.blender.org
mtllib circle.mtl
o Cube.001_Cube.003
v -0.211426 22.147758 -2.845407
v -0.211426 23.665628 -2.845407
v -0.211426 23.665628 1.180127
v -0.211426 22.147758 1.180127
v 1.067482 23.763815 -2.845407
v -0.211428 23.665628 -2.845407
v -0.211428 23.665628 1.180127
v 1.067482 23.763815 1.180127
v -0.211428 22.147758 -2.845407
v -0.211428 22.147758 1.180127
v -1.722038 22.263737 -2.845407
v -1.722038 22.263737 1.180127
v 1.299184 22.263737 -2.845407
v -1.490336 23.763815 1.180127
v 1.299184 22.263737 1.180127
v 2.774386 22.608946 1.180127
v 2.316415 24.056078 1.180127
v 4.179603 23.175301 1.180127
v 3.506098 24.535563 1.180127
v 5.481900 23.949522 1.180127
v 4.608643 25.191032 1.180127
v 6.650748 24.913464 1.180127
v 5.598211 26.007122 1.180127
v 7.658755 26.044535 1.180127
v 6.451605 26.964706 1.180127
v 8.482290 27.316219 1.180127
v 7.148824 28.041340 1.180127
v 9.102052 28.698713 1.180127
v 7.673525 29.211781 1.180127
v 9.503513 30.159611 1.180127
v 8.013410 30.448603 1.180127
v 9.677266 31.664669 1.180127
v 8.160510 31.722813 1.180127
v 9.619236 33.178612 1.180127
v 8.111380 33.004539 1.180127
v 9.330783 34.665955 1.180126
v 7.867171 34.263752 1.180126
v 8.818668 36.091835 1.180126
v 7.433605 35.470924 1.180126
v 8.094896 37.422829 1.180126
v 6.820848 36.597771 1.180126
v 7.176432 38.627743 1.180127
v 6.043260 37.617870 1.180126
v 6.084801 39.678333 1.180127
v 5.119066 38.507317 1.180127
v 4.845592 40.549973 1.180127
v 4.069930 39.245262 1.180127
v 3.487852 41.222233 1.180127
v 2.920443 39.814407 1.180127
v 2.043402 41.679359 1.180127
v 1.697548 40.201416 1.180127
v 0.546102 41.910629 1.180127
v 0.429908 40.397217 1.180127
v -0.968953 41.910629 1.180127
v -0.852764 40.397217 1.180127
v -2.466254 41.679359 1.180127
v -2.120404 40.201416 1.180127
v -3.910703 41.222237 1.180127
v -3.343300 39.814407 1.180127
v -5.268443 40.549976 1.180127
v -4.492786 39.245258 1.180127
v -6.507652 39.678337 1.180127
v -5.541922 38.507313 1.180127
v -7.599283 38.627747 1.180127
v -6.466115 37.617867 1.180126
v -8.517748 37.422832 1.180126
v -7.243703 36.597767 1.180126
v -9.241520 36.091839 1.180126
v -7.856461 35.470924 1.180126
v -9.753635 34.665958 1.180126
v -8.290025 34.263748 1.180126
v -10.042089 33.178616 1.180127
v -8.534234 33.004539 1.180127
v -10.100120 31.664673 1.180127
v -8.583364 31.722809 1.180127
v -9.926367 30.159613 1.180127
v -8.436262 30.448599 1.180127
v -9.524907 28.698715 1.180127
v -8.096378 29.211779 1.180127
v -8.905145 27.316223 1.180127
v -7.571677 28.041336 1.180127
v -8.081610 26.044537 1.180127
v -6.874458 26.964705 1.180127
v -7.073606 24.913465 1.180127
v -6.021063 26.007122 1.180127
v -5.904756 23.949522 1.180127
v -5.031495 25.191032 1.180127
v -4.602461 23.175303 1.180127
v -3.928948 24.535561 1.180127
v -3.197242 22.608948 1.180127
v -2.739267 24.056076 1.180127
v -1.490336 23.763815 -2.845407
v -3.197240 22.608946 -2.845407
v -2.739269 24.056078 -2.845407
v -4.602457 23.175301 -2.845407
v -3.928952 24.535563 -2.845407
v -5.904754 23.949522 -2.845407
v -5.031497 25.191032 -2.845407
v -7.073603 24.913464 -2.845407
v -6.021066 26.007122 -2.845407
v -8.081609 26.044535 -2.845407
v -6.874459 26.964706 -2.845407
v -8.905144 27.316219 -2.845407
v -7.571678 28.041340 -2.845407
v -9.524905 28.698713 -2.845407
v -8.096379 29.211781 -2.845407
v -9.926367 30.159611 -2.845407
v -8.436263 30.448603 -2.845407
v -10.100120 31.664669 -2.845407
v -8.583364 31.722813 -2.845407
v -10.042089 33.178612 -2.845407
v -8.534233 33.004539 -2.845406
v -9.753636 34.665955 -2.845407
v -8.290025 34.263752 -2.845407
v -9.241522 36.091835 -2.845407
v -7.856459 35.470924 -2.845407
v -8.517750 37.422829 -2.845407
v -7.243701 36.597771 -2.845407
v -7.599286 38.627743 -2.845407
v -6.466113 37.617870 -2.845407
v -6.507655 39.678333 -2.845407
v -5.541920 38.507317 -2.845407
v -5.268446 40.549973 -2.845407
v -4.492784 39.245262 -2.845407
v -3.910706 41.222233 -2.845407
v -3.343297 39.814407 -2.845407
v -2.466256 41.679359 -2.845407
v -2.120402 40.201416 -2.845407
v -0.968956 41.910629 -2.845407
v -0.852762 40.397217 -2.845407
v 0.546100 41.910629 -2.845407
v 0.429910 40.397217 -2.845407
v 2.043400 41.679359 -2.845407
v 1.697551 40.201416 -2.845407
v 3.487849 41.222237 -2.845407
v 2.920446 39.814407 -2.845407
v 4.845590 40.549976 -2.845407
v 4.069933 39.245258 -2.845407
v 6.084799 39.678337 -2.845407
v 5.119068 38.507313 -2.845407
v 7.176429 38.627747 -2.845407
v 6.043261 37.617867 -2.845407
v 8.094894 37.422832 -2.845407
v 6.820849 36.597767 -2.845407
v 8.818666 36.091839 -2.845407
v 7.433607 35.470924 -2.845407
v 9.330782 34.665958 -2.845407
v 7.867171 34.263748 -2.845407
v 9.619235 33.178616 -2.845407
v 8.111381 33.004539 -2.845406
v 9.677266 31.664673 -2.845407
v 8.160510 31.722809 -2.845407
v 9.503513 30.159613 -2.845407
v 8.013409 30.448599 -2.845407
v 9.102054 28.698715 -2.845407
v 7.673524 29.211779 -2.845407
v 8.482291 27.316223 -2.845407
v 7.148823 28.041336 -2.845407
v 7.658755 26.044537 -2.845407
v 6.451604 26.964705 -2.845407
v 6.650752 24.913465 -2.845407
v 5.598208 26.007122 -2.845407
v 5.481901 23.949522 -2.845407
v 4.608642 25.191032 -2.845407
v 4.179607 23.175303 -2.845407
v 3.506094 24.535561 -2.845407
v 2.774388 22.608948 -2.845407
v 2.316413 24.056076 -2.845407
vt 0.375000 0.000000
vt 0.375000 0.250000
vt 0.625000 0.250000
vt 0.625000 0.000000
vt 0.375000 0.493902
vt 0.375000 0.500000
vt 0.625000 0.500000
vt 0.625000 0.493902
vt 0.375000 0.750000
vt 0.625000 0.750000
vt 0.375000 0.993902
vt 0.375000 1.000000
vt 0.625000 1.000000
vt 0.625000 0.993902
vt 0.368902 0.500000
vt 0.368902 0.750000
vt 0.868902 0.500000
vt 0.868902 0.750000
vt 0.875000 0.750000
vt 0.875000 0.500000
vt 0.631098 0.750000
vt 0.631098 0.500000
vt 0.637195 0.750000
vt 0.637195 0.500000
vt 0.643293 0.750000
vt 0.643293 0.500000
vt 0.649390 0.750000
vt 0.649390 0.500000
vt 0.655488 0.750000
vt 0.655488 0.500000
vt 0.661585 0.750000
vt 0.661585 0.500000
vt 0.667683 0.750000
vt 0.667683 0.500000
vt 0.673780 0.750000
vt 0.673780 0.500000
vt 0.679878 0.750000
vt 0.679878 0.500000
vt 0.685976 0.750000
vt 0.685976 0.500000
vt 0.692073 0.750000
vt 0.692073 0.500000
vt 0.698171 0.750000
vt 0.698171 0.500000
vt 0.704268 0.750000
vt 0.704268 0.500000
vt 0.710366 0.750000
vt 0.710366 0.500000
vt 0.716463 0.750000
vt 0.716463 0.500000
vt 0.722561 0.750000
vt 0.722561 0.500000
vt 0.728658 0.750000
vt 0.728658 0.500000
vt 0.734756 0.750000
vt 0.734756 0.500000
vt 0.740854 0.750000
vt 0.740854 0.500000
vt 0.746951 0.750000
vt 0.746951 0.500000
vt 0.753049 0.750000
vt 0.753049 0.500000
vt 0.759146 0.750000
vt 0.759146 0.500000
vt 0.765244 0.750000
vt 0.765244 0.500000
vt 0.771341 0.750000
vt 0.771341 0.500000
vt 0.777439 0.750000
vt 0.777439 0.500000
vt 0.783537 0.750000
vt 0.783537 0.500000
vt 0.789634 0.750000
vt 0.789634 0.500000
vt 0.795732 0.750000
vt 0.795732 0.500000
vt 0.801829 0.750000
vt 0.801829 0.500000
vt 0.807927 0.750000
vt 0.807927 0.500000
vt 0.814024 0.750000
vt 0.814024 0.500000
vt 0.820122 0.750000
vt 0.820122 0.500000
vt 0.826219 0.750000
vt 0.826220 0.500000
vt 0.832317 0.750000
vt 0.832317 0.500000
vt 0.838415 0.750000
vt 0.838415 0.500000
vt 0.844512 0.750000
vt 0.844512 0.500000
vt 0.850610 0.750000
vt 0.850610 0.500000
vt 0.856707 0.750000
vt 0.856707 0.500000
vt 0.862805 0.750000
vt 0.862805 0.500000
vt 0.125000 0.500000
vt 0.125000 0.750000
vt 0.131098 0.750000
vt 0.131098 0.500000
vt 0.137195 0.750000
vt 0.137195 0.500000
vt 0.143293 0.750000
vt 0.143293 0.500000
vt 0.149390 0.750000
vt 0.149390 0.500000
vt 0.155488 0.750000
vt 0.155488 0.500000
vt 0.161585 0.750000
vt 0.161585 0.500000
vt 0.167683 0.750000
vt 0.167683 0.500000
vt 0.173781 0.750000
vt 0.173780 0.500000
vt 0.179878 0.750000
vt 0.179878 0.500000
vt 0.185976 0.750000
vt 0.185976 0.500000
vt 0.192073 0.750000
vt 0.192073 0.500000
vt 0.198171 0.750000
vt 0.198171 0.500000
vt 0.204268 0.750000
vt 0.204268 0.500000
vt 0.210366 0.750000
vt 0.210366 0.500000
vt 0.216463 0.750000
vt 0.216463 0.500000
vt 0.222561 0.750000
vt 0.222561 0.500000
vt 0.228659 0.750000
vt 0.228658 0.500000
vt 0.234756 0.750000
vt 0.234756 0.500000
vt 0.240854 0.750000
vt 0.240854 0.500000
vt 0.246951 0.750000
vt 0.246951 0.500000
vt 0.253049 0.750000
vt 0.253049 0.500000
vt 0.259146 0.750000
vt 0.259146 0.500000
vt 0.265244 0.750000
vt 0.265244 0.500000
vt 0.271342 0.750000
vt 0.271341 0.500000
vt 0.277439 0.750000
vt 0.277439 0.500000
vt 0.283537 0.750000
vt 0.283537 0.500000
vt 0.289634 0.750000
vt 0.289634 0.500000
vt 0.295732 0.750000
vt 0.295732 0.500000
vt 0.301829 0.750000
vt 0.301829 0.500000
vt 0.307927 0.750000
vt 0.307927 0.500000
vt 0.314024 0.750000
vt 0.314024 0.500000
vt 0.320122 0.750000
vt 0.320122 0.500000
vt 0.326219 0.750000
vt 0.326219 0.500000
vt 0.332317 0.750000
vt 0.332317 0.500000
vt 0.338415 0.750000
vt 0.338415 0.500000
vt 0.344512 0.750000
vt 0.344512 0.500000
vt 0.350610 0.750000
vt 0.350610 0.500000
vt 0.356707 0.750000
vt 0.356707 0.500000
vt 0.362805 0.750000
vt 0.362805 0.500000
vt 0.375000 0.756098
vt 0.625000 0.756098
vt 0.375000 0.762195
vt 0.625000 0.762195
vt 0.375000 0.768293
vt 0.625000 0.768293
vt 0.375000 0.774390
vt 0.625000 0.774390
vt 0.375000 0.780488
vt 0.625000 0.780488
vt 0.375000 0.786585
vt 0.625000 0.786585
vt 0.375000 0.792683
vt 0.625000 0.792683
vt 0.375000 0.798780
vt 0.625000 0.798780
vt 0.375000 0.804878
vt 0.625000 0.804878
vt 0.375000 0.810975
vt 0.625000 0.810976
vt 0.375000 0.817073
vt 0.625000 0.817073
vt 0.375000 0.823171
vt 0.625000 0.823171
vt 0.375000 0.829268
vt 0.625000 0.829268
vt 0.375000 0.835366
vt 0.625000 0.835366
vt 0.375000 0.841463
vt 0.625000 0.841463
vt 0.375000 0.847561
vt 0.625000 0.847561
vt 0.375000 0.853658
vt 0.625000 0.853658
vt 0.375000 0.859756
vt 0.625000 0.859756
vt 0.375000 0.865854
vt 0.625000 0.865854
vt 0.375000 0.871951
vt 0.625000 0.871951
vt 0.375000 0.878049
vt 0.625000 0.878049
vt 0.375000 0.884146
vt 0.625000 0.884146
vt 0.375000 0.890244
vt 0.625000 0.890244
vt 0.375000 0.896341
vt 0.625000 0.896341
vt 0.375000 0.902439
vt 0.625000 0.902439
vt 0.375000 0.908537
vt 0.625000 0.908536
vt 0.375000 0.914634
vt 0.625000 0.914634
vt 0.375000 0.920732
vt 0.625000 0.920732
vt 0.375000 0.926829
vt 0.625000 0.926829
vt 0.375000 0.932927
vt 0.625000 0.932927
vt 0.375000 0.939024
vt 0.625000 0.939024
vt 0.375000 0.945122
vt 0.625000 0.945122
vt 0.375000 0.951219
vt 0.625000 0.951219
vt 0.375000 0.957317
vt 0.625000 0.957317
vt 0.375000 0.963415
vt 0.625000 0.963414
vt 0.375000 0.969512
vt 0.625000 0.969512
vt 0.375000 0.975610
vt 0.625000 0.975610
vt 0.375000 0.981707
vt 0.625000 0.981707
vt 0.375000 0.987805
vt 0.625000 0.987805
vt 0.375000 0.256098
vt 0.625000 0.256098
vt 0.375000 0.262195
vt 0.625000 0.262195
vt 0.375000 0.268293
vt 0.625000 0.268293
vt 0.375000 0.274390
vt 0.625000 0.274390
vt 0.375000 0.280488
vt 0.625000 0.280488
vt 0.375000 0.286585
vt 0.625000 0.286585
vt 0.375000 0.292683
vt 0.625000 0.292683
vt 0.375000 0.298780
vt 0.625000 0.298780
vt 0.375000 0.304878
vt 0.625000 0.304878
vt 0.375000 0.310976
vt 0.625000 0.310976
vt 0.375000 0.317073
vt 0.625000 0.317073
vt 0.375000 0.323171
vt 0.625000 0.323171
vt 0.375000 0.329268
vt 0.625000 0.329268
vt 0.375000 0.335366
vt 0.625000 0.335366
vt 0.375000 0.341463
vt 0.625000 0.341463
vt 0.375000 0.347561
vt 0.625000 0.347561
vt 0.375000 0.353658
vt 0.625000 0.353658
vt 0.375000 0.359756
vt 0.625000 0.359756
vt 0.375000 0.365854
vt 0.625000 0.365854
vt 0.375000 0.371951
vt 0.625000 0.371951
vt 0.375000 0.378049
vt 0.625000 0.378049
vt 0.375000 0.384146
vt 0.625000 0.384146
vt 0.375000 0.390244
vt 0.625000 0.390244
vt 0.375000 0.396341
vt 0.625000 0.396341
vt 0.375000 0.402439
vt 0.625000 0.402439
vt 0.375000 0.408537
vt 0.625000 0.408536
vt 0.375000 0.414634
vt 0.625000 0.414634
vt 0.375000 0.420732
vt 0.625000 0.420732
vt 0.375000 0.426829
vt 0.625000 0.426829
vt 0.375000 0.432927
vt 0.625000 0.432927
vt 0.375000 0.439024
vt 0.625000 0.439024
vt 0.375000 0.445122
vt 0.625000 0.445122
vt 0.375000 0.451220
vt 0.625000 0.451219
vt 0.375000 0.457317
vt 0.625000 0.457317
vt 0.375000 0.463415
vt 0.625000 0.463415
vt 0.375000 0.469512
vt 0.625000 0.469512
vt 0.375000 0.475610
vt 0.625000 0.475610
vt 0.375000 0.481707
vt 0.625000 0.481707
vt 0.375000 0.487805
vt 0.625000 0.487805
vn 1.0000 0.0000 0.0000
vn -0.0765 0.9971 0.0000
vn -1.0000 -0.0000 0.0000
vn -0.0766 -0.9971 0.0000
vn -0.0000 -0.0000 -1.0000
vn 0.0000 0.0000 1.0000
vn 0.0766 -0.9971 0.0000
vn 0.2279 -0.9737 0.0000
vn 0.3738 -0.9275 0.0000
vn 0.5110 -0.8596 0.0000
vn 0.6362 -0.7715 0.0000
vn 0.7466 -0.6653 0.0000
vn 0.8394 -0.5436 0.0000
vn 0.9125 -0.4091 0.0000
vn 0.9643 -0.2650 0.0000
vn 0.9934 -0.1147 -0.0000
vn 0.9993 0.0383 -0.0000
vn 0.9817 0.1904 0.0000
vn 0.9411 0.3380 0.0000
vn 0.8785 0.4777 0.0000
vn 0.7953 0.6062 0.0000
vn 0.6934 0.7205 0.0000
vn 0.5753 0.8179 0.0000
vn 0.4437 0.8962 0.0000
vn 0.3017 0.9534 -0.0000
vn 0.1526 0.9883 0.0000
vn 0.0000 1.0000 0.0000
vn -0.1526 0.9883 0.0000
vn -0.3017 0.9534 0.0000
vn -0.4437 0.8962 -0.0000
vn -0.5753 0.8179 -0.0000
vn -0.6934 0.7205 0.0000
vn -0.7953 0.6062 -0.0000
vn -0.8785 0.4777 0.0000
vn -0.9411 0.3380 0.0000
vn -0.9817 0.1904 0.0000
vn -0.9993 0.0383 -0.0000
vn -0.9934 -0.1147 0.0000
vn -0.9643 -0.2650 0.0000
vn -0.9125 -0.4091 0.0000
vn -0.8394 -0.5436 0.0000
vn -0.7466 -0.6653 -0.0000
vn -0.6362 -0.7715 0.0000
vn -0.5110 -0.8596 -0.0000
vn -0.3738 -0.9275 0.0000
vn -0.2279 -0.9737 0.0000
vn 0.0765 0.9971 0.0000
vn 0.2279 0.9737 0.0000
vn 0.3738 0.9275 0.0000
vn 0.5110 0.8596 0.0000
vn 0.6362 0.7715 -0.0000
vn 0.7466 0.6653 0.0000
vn 0.8394 0.5436 -0.0000
vn 0.9125 0.4091 0.0000
vn 0.9643 0.2650 0.0000
vn 0.9934 0.1147 0.0000
vn 0.9993 -0.0383 0.0000
vn 0.9817 -0.1904 -0.0000
vn 0.9411 -0.3380 -0.0000
vn 0.8785 -0.4777 0.0000
vn 0.7953 -0.6062 0.0000
vn 0.6934 -0.7205 0.0000
vn 0.5753 -0.8179 0.0000
vn 0.4437 -0.8962 -0.0000
vn 0.3017 -0.9534 0.0000
vn 0.1527 -0.9883 0.0000
vn 0.0000 -1.0000 0.0000
vn -0.1527 -0.9883 -0.0000
vn -0.3017 -0.9534 0.0000
vn -0.4437 -0.8962 0.0000
vn -0.5753 -0.8179 0.0000
vn -0.6934 -0.7205 -0.0000
vn -0.7953 -0.6062 -0.0000
vn -0.8785 -0.4777 -0.0000
vn -0.9411 -0.3380 0.0000
vn -0.9817 -0.1904 0.0000
vn -0.9993 -0.0383 -0.0000
vn -0.9934 0.1147 0.0000
vn -0.9643 0.2650 0.0000
vn -0.9125 0.4091 -0.0000
vn -0.8394 0.5436 0.0000
vn -0.7466 0.6653 0.0000
vn -0.6362 0.7715 0.0000
vn -0.5110 0.8596 0.0000
vn -0.3738 0.9275 -0.0000
vn -0.2279 0.9737 0.0000
usemtl None
s 1
f 1/1/1 2/2/1 3/3/1 4/4/1
f 5/5/2 6/6/2 7/7/2 8/8/2
f 6/6/3 9/9/3 10/10/3 7/7/3
f 11/11/4 1/12/4 4/13/4 12/14/4
f 5/15/5 13/16/5 9/9/5 6/6/5
f 14/17/6 12/18/6 4/19/6 3/20/6
f 7/7/6 10/10/6 15/21/6 8/22/6
f 8/22/6 15/21/6 16/23/6 17/24/6
f 17/24/6 16/23/6 18/25/6 19/26/6
f 19/26/6 18/25/6 20/27/6 21/28/6
f 21/28/6 20/27/6 22/29/6 23/30/6
f 23/30/6 22/29/6 24/31/6 25/32/6
f 25/32/6 24/31/6 26/33/6 27/34/6
f 27/34/6 26/33/6 28/35/6 29/36/6
f 29/36/6 28/35/6 30/37/6 31/38/6
f 31/38/6 30/37/6 32/39/6 33/40/6
f 33/40/6 32/39/6 34/41/6 35/42/6
f 35/42/6 34/41/6 36/43/6 37/44/6
f 37/44/6 36/43/6 38/45/6 39/46/6
f 39/46/6 38/45/6 40/47/6 41/48/6
f 41/48/6 40/47/6 42/49/6 43/50/6
f 43/50/6 42/49/6 44/51/6 45/52/6
f 45/52/6 44/51/6 46/53/6 47/54/6
f 47/54/6 46/53/6 48/55/6 49/56/6
f 49/56/6 48/55/6 50/57/6 51/58/6
f 51/58/6 50/57/6 52/59/6 53/60/6
f 53/60/6 52/59/6 54/61/6 55/62/6
f 55/62/6 54/61/6 56/63/6 57/64/6
f 57/64/6 56/63/6 58/65/6 59/66/6
f 59/66/6 58/65/6 60/67/6 61/68/6
f 61/68/6 60/67/6 62/69/6 63/70/6
f 63/70/6 62/69/6 64/71/6 65/72/6
f 65/72/6 64/71/6 66/73/6 67/74/6
f 67/74/6 66/73/6 68/75/6 69/76/6
f 69/76/6 68/75/6 70/77/6 71/78/6
f 71/78/6 70/77/6 72/79/6 73/80/6
f 73/80/6 72/79/6 74/81/6 75/82/6
f 75/82/6 74/81/6 76/83/6 77/84/6
f 77/84/6 76/83/6 78/85/6 79/86/6
f 79/86/6 78/85/6 80/87/6 81/88/6
f 81/88/6 80/87/6 82/89/6 83/90/6
f 83/90/6 82/89/6 84/91/6 85/92/6
f 85/92/6 84/91/6 86/93/6 87/94/6
f 87/94/6 86/93/6 88/95/6 89/96/6
f 89/96/6 88/95/6 90/97/6 91/98/6
f 91/98/6 90/97/6 12/18/6 14/17/6
f 2/99/5 1/100/5 11/101/5 92/102/5
f 92/102/5 11/101/5 93/103/5 94/104/5
f 94/104/5 93/103/5 95/105/5 96/106/5
f 96/106/5 95/105/5 97/107/5 98/108/5
f 98/108/5 97/107/5 99/109/5 100/110/5
f 100/110/5 99/109/5 101/111/5 102/112/5
f 102/112/5 101/111/5 103/113/5 104/114/5
f 104/114/5 103/113/5 105/115/5 106/116/5
f 106/116/5 105/115/5 107/117/5 108/118/5
f 108/118/5 107/117/5 109/119/5 110/120/5
f 110/120/5 109/119/5 111/121/5 112/122/5
f 112/122/5 111/121/5 113/123/5 114/124/5
f 114/124/5 113/123/5 115/125/5 116/126/5
f 116/126/5 115/125/5 117/127/5 118/128/5
f 118/128/5 117/127/5 119/129/5 120/130/5
f 120/130/5 119/129/5 121/131/5 122/132/5
f 122/132/5 121/131/5 123/133/5 124/134/5
f 124/134/5 123/133/5 125/135/5 126/136/5
f 126/136/5 125/135/5 127/137/5 128/138/5
f 128/138/5 127/137/5 129/139/5 130/140/5
f 130/140/5 129/139/5 131/141/5 132/142/5
f 132/142/5 131/141/5 133/143/5 134/144/5
f 134/144/5 133/143/5 135/145/5 136/146/5
f 136/146/5 135/145/5 137/147/5 138/148/5
f 138/148/5 137/147/5 139/149/5 140/150/5
f 140/150/5 139/149/5 141/151/5 142/152/5
f 142/152/5 141/151/5 143/153/5 144/154/5
f 144/154/5 143/153/5 145/155/5 146/156/5
f 146/156/5 145/155/5 147/157/5 148/158/5
f 148/158/5 147/157/5 149/159/5 150/160/5
f 150/160/5 149/159/5 151/161/5 152/162/5
f 152/162/5 151/161/5 153/163/5 154/164/5
f 154/164/5 153/163/5 155/165/5 156/166/5
f 156/166/5 155/165/5 157/167/5 158/168/5
f 158/168/5 157/167/5 159/169/5 160/170/5
f 160/170/5 159/169/5 161/171/5 162/172/5
f 162/172/5 161/171/5 163/173/5 164/174/5
f 164/174/5 163/173/5 165/175/5 166/176/5
f 166/176/5 165/175/5 167/177/5 168/178/5
f 168/178/5 167/177/5 13/16/5 5/15/5
f 9/9/7 13/179/7 15/180/7 10/10/7
f 13/179/8 167/181/8 16/182/8 15/180/8
f 167/181/9 165/183/9 18/184/9 16/182/9
f 165/183/10 163/185/10 20/186/10 18/184/10
f 163/185/11 161/187/11 22/188/11 20/186/11
f 161/187/12 159/189/12 24/190/12 22/188/12
f 159/189/13 157/191/13 26/192/13 24/190/13
f 157/191/14 155/193/14 28/194/14 26/192/14
f 155/193/15 153/195/15 30/196/15 28/194/15
f 153/195/16 151/197/16 32/198/16 30/196/16
f 151/197/17 149/199/17 34/200/17 32/198/17
f 149/199/18 147/201/18 36/202/18 34/200/18
f 147/201/19 145/203/19 38/204/19 36/202/19
f 145/203/20 143/205/20 40/206/20 38/204/20
f 143/205/21 141/207/21 42/208/21 40/206/21
f 141/207/22 139/209/22 44/210/22 42/208/22
f 139/209/23 137/211/23 46/212/23 44/210/23
f 137/211/24 135/213/24 48/214/24 46/212/24
f 135/213/25 133/215/25 50/216/25 48/214/25
f 133/215/26 131/217/26 52/218/26 50/216/26
f 131/217/27 129/219/27 54/220/27 52/218/27
f 129/219/28 127/221/28 56/222/28 54/220/28
f 127/221/29 125/223/29 58/224/29 56/222/29
f 125/223/30 123/225/30 60/226/30 58/224/30
f 123/225/31 121/227/31 62/228/31 60/226/31
f 121/227/32 119/229/32 64/230/32 62/228/32
f 119/229/33 117/231/33 66/232/33 64/230/33
f 117/231/34 115/233/34 68/234/34 66/232/34
f 115/233/35 113/235/35 70/236/35 68/234/35
f 113/235/36 111/237/36 72/238/36 70/236/36
f 111/237/37 109/239/37 74/240/37 72/238/37
f 109/239/38 107/241/38 76/242/38 74/240/38
f 107/241/39 105/243/39 78/244/39 76/242/39
f 105/243/40 103/245/40 80/246/40 78/244/40
f 103/245/41 101/247/41 82/248/41 80/246/41
f 101/247/42 99/249/42 84/250/42 82/248/42
f 99/249/43 97/251/43 86/252/43 84/250/43
f 97/251/44 95/253/44 88/254/44 86/252/44
f 95/253/45 93/255/45 90/256/45 88/254/45
f 93/255/46 11/11/46 12/14/46 90/256/46
f 2/2/47 92/257/47 14/258/47 3/3/47
f 92/257/48 94/259/48 91/260/48 14/258/48
f 94/259/49 96/261/49 89/262/49 91/260/49
f 96/261/50 98/263/50 87/264/50 89/262/50
f 98/263/51 100/265/51 85/266/51 87/264/51
f 100/265/52 102/267/52 83/268/52 85/266/52
f 102/267/53 104/269/53 81/270/53 83/268/53
f 104/269/54 106/271/54 79/272/54 81/270/54
f 106/271/55 108/273/55 77/274/55 79/272/55
f 108/273/56 110/275/56 75/276/56 77/274/56
f 110/275/57 112/277/57 73/278/57 75/276/57
f 112/277/58 114/279/58 71/280/58 73/278/58
f 114/279/59 116/281/59 69/282/59 71/280/59
f 116/281/60 118/283/60 67/284/60 69/282/60
f 118/283/61 120/285/61 65/286/61 67/284/61
f 120/285/62 122/287/62 63/288/62 65/286/62
f 122/287/63 124/289/63 61/290/63 63/288/63
f 124/289/64 126/291/64 59/292/64 61/290/64
f 126/291/65 128/293/65 57/294/65 59/292/65
f 128/293/66 130/295/66 55/296/66 57/294/66
f 130/295/67 132/297/67 53/298/67 55/296/67
f 132/297/68 134/299/68 51/300/68 53/298/68
f 134/299/69 136/301/69 49/302/69 51/300/69
f 136/301/70 138/303/70 47/304/70 49/302/70
f 138/303/71 140/305/71 45/306/71 47/304/71
f 140/305/72 142/307/72 43/308/72 45/306/72
f 142/307/73 144/309/73 41/310/73 43/308/73
f 144/309/74 146/311/74 39/312/74 41/310/74
f 146/311/75 148/313/75 37/314/75 39/312/75
f 148/313/76 150/315/76 35/316/76 37/314/76
f 150/315/77 152/317/77 33/318/77 35/316/77
f 152/317/78 154/319/78 31/320/78 33/318/78
f 154/319/79 156/321/79 29/322/79 31/320/79
f 156/321/80 158/323/80 27/324/80 29/322/80
f 158/323/81 160/325/81 25/326/81 27/324/81
f 160/325/82 162/327/82 23/328/82 25/326/82
f 162/327/83 164/329/83 21/330/83 23/328/83
f 164/329/84 166/331/84 19/332/84 21/330/84
f 166/331/85 168/333/85 17/334/85 19/332/85
f 168/333/86 5/5/86 8/8/86 17/334/86
